<?xml version="1.0" encoding="UTF-8" standalone="no"?>
<!-- Created with Inkscape (http://www.inkscape.org/) -->

<svg
   width="25.267601"
   height="30.4841"
   version="1.1"
   viewBox="0 0 25.267601 30.4841"
   id="svg3"
   xmlns="http://www.w3.org/2000/svg"
   xmlns:svg="http://www.w3.org/2000/svg">
  <defs
     id="defs3" />
  <rect
     x="4.0076499"
     y="0.37895"
     width="19.881001"
     height="28.236"
     rx="3.0706"
     ry="3.0706"
     fill="#ffffff"
     stroke="#000000"
     stroke-linejoin="round"
     stroke-width="0.7579"
     style="paint-order:normal"
     id="rect2" />
  <rect
     x="0.37895"
     y="1.8691499"
     width="19.881001"
     height="28.236"
     rx="3.0706"
     ry="3.0706"
     fill="#ffffff"
     stroke="#000000"
     stroke-linejoin="round"
     stroke-width="0.7579"
     style="paint-order:normal"
     id="rect3" />
  <g
     transform="matrix(0.87257,0,0,1.146,-1.05345,-1.50245)"
     stroke="#ff0000"
     stroke-width="1.1512"
     aria-label="K"
     id="g3">
    <path
       d="m 18.374,7.7262 q -0.68401,0.75021 -1.5445,1.6769 -0.86053,0.90466 -1.8093,1.8755 -0.92673,0.94879 -1.8535,1.8755 -0.92672,0.92673 -1.7431,1.7211 0.94879,0.66195 2.0079,1.6328 1.05911,0.97085 2.0741,2.0741 1.015,1.1032 1.8976,2.2506 0.90466,1.1474 1.5004,2.1844 H 16.3882 Q 15.72625,21.9801 14.8657,20.943 14.00517,19.8839 13.0343,18.9351 12.08551,17.96424 11.0926,17.1478 10.12174,16.3314 9.195,15.7577 v 7.2594 H 7.0547 V 7.7261 H 9.195 v 6.7519 q 0.77227,-0.72814 1.699,-1.6328 0.92672,-0.92673 1.8314,-1.8535 0.90468,-0.92677 1.699,-1.7652 0.8164,-0.86053 1.368,-1.5004 z"
       fill="#ff0000"
       id="path3" />
  </g>
</svg>
