<?xml version="1.0" encoding="UTF-8"?>
<!-- Created with Inkscape (http://www.inkscape.org/) -->
<svg width="1040.3" height="180" version="1.1" viewBox="0 0 1040.3 180" xml:space="preserve" xmlns="http://www.w3.org/2000/svg">
  <g transform="scale(5.9047)">
    <rect x="4.0076" y=".37895" width="19.881" height="28.236" rx="3.0706" ry="3.0706" fill="#fff" stroke="#000" stroke-linejoin="round" stroke-width=".7579" style="paint-order:normal"/>
    <rect x=".37895" y="1.8691" width="19.881" height="28.236" rx="3.0706" ry="3.0706" fill="#fff" stroke="#000" stroke-linejoin="round" stroke-width=".7579" style="paint-order:normal"/>
    <g transform="matrix(.87257 0 0 1.146 -1.0534 -1.5024)" stroke="#f00" stroke-width="1.1512" aria-label="K">
      <path d="m18.374 7.7262q-0.68401 0.75021-1.5445 1.6769-0.86053 0.90466-1.8093 1.8755-0.92673 0.94879-1.8535 1.8755-0.92672 0.92673-1.7431 1.7211 0.94879 0.66195 2.0079 1.6328t2.0741 2.0741q1.015 1.1032 1.8976 2.2506 0.90466 1.1474 1.5004 2.1844h-2.5154q-0.66195-1.037-1.5225-2.0741-0.86053-1.0591-1.8314-2.0079-0.94879-0.97086-1.9417-1.7873-0.97086-0.8164-1.8976-1.3901v7.2594h-2.1403v-15.291h2.1403v6.7519q0.77227-0.72814 1.699-1.6328 0.92672-0.92673 1.8314-1.8535t1.699-1.7652q0.8164-0.86053 1.368-1.5004z" fill="#f00"/>
    </g>
  </g>
  <path d="m211.85 120.62q0 6.9504-2.0179 12.668-2.0179 5.7173-5.7173 9.753t-8.9683 6.2778q-5.1568 2.2421-11.435 2.2421-6.2778 0-11.435-2.2421-5.1568-2.2421-8.8562-6.2778t-5.8294-9.753q-2.0179-5.7173-2.0179-12.668t2.0179-12.556q2.13-5.7173 5.8294-9.753 3.8115-4.0357 8.9683-6.1657 5.1568-2.2421 11.322-2.2421t11.322 2.2421q5.2689 2.13 8.9683 6.1657 3.6994 4.0357 5.7173 9.753 2.13 5.6052 2.13 12.556zm-13.901 0q0-8.7441-3.8115-13.789-3.6994-5.1568-10.426-5.1568t-10.538 5.1568q-3.6994 5.0447-3.6994 13.789 0 8.8562 3.6994 14.013 3.8115 5.1568 10.538 5.1568t10.426-5.1568q3.8115-5.1568 3.8115-14.013zm61.321-17.04q-1.6816-0.56052-4.7084-1.121-2.9147-0.67262-6.8383-0.67262-2.2421 0-4.8205 0.44842-2.4663 0.44841-3.4752 0.78472v46.972h-13.565v-55.828q3.9236-1.4574 9.753-2.6905 5.9415-1.3452 13.116-1.3452 1.3452 0 3.1389 0.22421 1.7937 0.1121 3.5873 0.44842 1.7937 0.22421 3.4752 0.67262 1.6816 0.33631 2.6905 0.67262zm11.098-27.69 13.565-2.2421v17.712h20.851v11.322h-20.851v23.878q0 7.0626 2.2421 10.089 2.2421 3.0268 7.6231 3.0268 3.6994 0 6.502-0.78472 2.9147-0.78473 4.5963-1.4574l2.2421 10.762q-2.3542 1.0089-6.1657 2.0179-3.8115 1.121-8.9683 1.121-6.2778 0-10.538-1.6816-4.1478-1.6816-6.6141-4.8205-2.4663-3.251-3.4752-7.7352-1.0089-4.5963-1.0089-10.426zm62.218 64.348q5.381 0 7.8473-1.2331 2.4663-1.3452 2.4663-4.4842 0-2.9147-2.6905-4.8205-2.5784-1.9058-8.632-4.1478-3.6994-1.3452-6.8383-2.8026-3.0268-1.5694-5.2689-3.5873-2.2421-2.0179-3.5873-4.8205-1.2331-2.9147-1.2331-7.0625 0-8.0715 5.9415-12.668 5.9415-4.7084 16.143-4.7084 5.1568 0 9.8651 1.0089 4.7084 0.89683 7.0625 1.7937l-2.4663 10.986q-2.2421-1.0089-5.7173-1.7937-3.4752-0.89683-8.0715-0.89683-4.1478 0-6.7262 1.4574-2.5784 1.3452-2.5784 4.26 0 1.4574 0.44842 2.5784 0.56052 1.121 1.7937 2.13 1.2331 0.89683 3.251 1.9058 2.0179 0.89683 4.9326 1.9058 4.8205 1.7937 8.1836 3.5873 3.3631 1.6816 5.4931 3.9236 2.2421 2.13 3.251 4.9326 1.0089 2.8026 1.0089 6.7262 0 8.4078-6.2778 12.78-6.1657 4.26-17.712 4.26-7.7352 0-12.444-1.3452-4.7084-1.2331-6.6141-2.0179l2.3542-11.322q3.0268 1.2332 7.1746 2.3542 4.2599 1.121 9.6409 1.121zm75.446-19.282q0-9.0804-4.1478-14.125-4.0357-5.0447-13.116-5.0447-1.9058 0-4.0357 0.22421-2.0179 0.1121-4.0357 0.67262v33.519q1.7937 1.2332 4.7084 2.3542 3.0268 1.0089 6.3899 1.0089 7.3988 0 10.762-5.0447 3.4752-5.0447 3.4752-13.565zm13.901-0.22421q0 6.7262-1.7937 12.331-1.6816 5.6052-4.9326 9.6409t-8.1836 6.2778q-4.8205 2.2421-10.986 2.2421-4.1478 0-7.6231-1.0089-3.4752-1.0089-5.7173-2.2421v22.757h-13.565v-77.464q4.1478-1.121 10.201-2.13 6.0536-1.0089 12.78-1.0089 6.9504 0 12.444 2.13t9.3046 6.1657q3.9236 3.9236 5.9415 9.6409 2.13 5.6052 2.13 12.668zm27.69 29.259h-13.565v-58.63h13.565zm1.4574-75.782q0 3.8115-2.4663 6.0536-2.4663 2.2421-5.8294 2.2421-3.4752 0-5.9415-2.2421-2.4663-2.2421-2.4663-6.0536 0-3.9236 2.4663-6.1657 2.4663-2.2421 5.9415-2.2421 3.3631 0 5.8294 2.2421 2.4663 2.2421 2.4663 6.1657zm36.209 76.903q-6.0536-0.11211-10.089-1.3452-3.9236-1.2331-6.2778-3.4752-2.3542-2.3542-3.3631-5.7173-0.89683-3.4752-0.89683-7.8473v-67.487l13.565-2.2421v67.15q0 2.4663 0.33631 4.1478 0.44842 1.6816 1.4574 2.9147 1.0089 1.121 2.6905 1.7937 1.7937 0.56052 4.4842 0.89683zm33.295 0q-6.0536-0.11211-10.089-1.3452-3.9236-1.2331-6.2778-3.4752-2.3542-2.3542-3.3631-5.7173-0.89684-3.4752-0.89684-7.8473v-67.487l13.565-2.2421v67.15q0 2.4663 0.33631 4.1478 0.44842 1.6816 1.4574 2.9147 1.0089 1.121 2.6905 1.7937 1.7937 0.56052 4.4842 0.89683zm23.542-31.95q0 8.632 3.6994 12.668 3.8115 3.9236 9.753 3.9236 3.251 0 6.0536-0.89683 2.9147-0.89683 4.7084-2.13v-30.38q-1.4574-0.33631-3.5873-0.56052-2.13-0.33631-5.381-0.33631-7.3988 0-11.322 4.9326-3.9236 4.8205-3.9236 12.78zm37.779 24.887q0 14.013-7.1746 20.515-7.0625 6.502-21.748 6.502-5.381 0-10.538-0.89683-5.0447-0.89683-9.1925-2.3542l2.4663-11.547q3.4752 1.4574 7.8473 2.3542 4.4842 0.89683 9.6409 0.89683 8.1836 0 11.659-3.3631 3.4752-3.3631 3.4752-9.9772v-2.2421q-2.0179 1.0089-5.381 2.0179-3.251 1.0089-7.511 1.0089-5.6052 0-10.314-1.7937-4.5963-1.7937-7.9594-5.2689-3.251-3.4752-5.1568-8.632-1.7937-5.2689-1.7937-12.107 0-6.3899 1.9058-11.771 2.0179-5.381 5.7173-9.1925 3.8115-3.8115 9.1925-5.9415 5.381-2.13 12.219-2.13 6.6141 0 12.556 1.0089 5.9415 1.0089 10.089 2.13zm65.357 4.1478q-3.9236 1.0089-10.201 2.0179-6.2778 1.121-13.789 1.121-7.0626 0-11.883-2.0179-4.7084-2.0179-7.6231-5.6052-2.8026-3.5873-4.0357-8.5199-1.2332-5.0447-1.2332-10.986v-32.846h13.565v30.716q0 9.4167 2.6905 13.452 2.8026 4.0357 9.6409 4.0357 2.4663 0 5.1568-0.22421 2.8026-0.22421 4.1478-0.56052v-47.42h13.565zm30.941 1.7937h-13.565v-58.63h13.565zm1.4574-75.782q0 3.8115-2.4663 6.0536-2.4663 2.2421-5.8294 2.2421-3.4752 0-5.9415-2.2421-2.4663-2.2421-2.4663-6.0536 0-3.9236 2.4663-6.1657 2.4663-2.2421 5.9415-2.2421 3.3631 0 5.8294 2.2421 2.4663 2.2421 2.4663 6.1657zm26.456 46.299q0 8.9683 4.26 14.125 4.2599 5.0447 11.771 5.0447 3.251 0 5.4931-0.2242 2.3542-0.33632 3.8115-0.67263v-33.631q-1.7937-1.2332-4.8205-2.2421-2.9147-1.121-6.2778-1.121-7.3989 0-10.874 5.0447-3.3631 5.0447-3.3631 13.677zm38.9 27.69q-4.0357 1.2331-10.201 2.2421-6.0536 1.0089-12.78 1.0089-6.9504 0-12.444-2.13-5.4931-2.13-9.4167-6.0536-3.8115-4.0357-5.9415-9.6409-2.0179-5.7173-2.0179-12.78 0-6.9504 1.6816-12.556 1.7937-5.7173 5.1568-9.753 3.3631-4.0357 8.1836-6.1657 4.8205-2.2421 11.098-2.2421 4.26 0 7.511 1.0089 3.251 1.0089 5.6052 2.2421v-28.138l13.565-2.2421zm14.013-27.241q0-7.7352 2.2421-13.565 2.3542-5.8294 6.1657-9.6409 3.8115-3.9236 8.7441-5.8294 4.9326-2.0179 10.089-2.0179 12.107 0 18.833 7.511 6.8383 7.511 6.8383 22.421 0 1.121-0.11211 2.5784 0 1.3452-0.1121 2.4663h-38.676q0.56052 7.0625 4.9326 10.986 4.4842 3.8115 12.892 3.8115 4.9326 0 8.9683-0.89683 4.1478-0.89683 6.502-1.9058l1.7937 11.098q-1.121 0.56052-3.1389 1.2331-1.9058 0.56052-4.4842 1.0089-2.4663 0.56052-5.381 0.89683t-5.9415 0.33631q-7.7352 0-13.452-2.2421-5.7173-2.3542-9.4167-6.3899-3.6994-4.1478-5.4931-9.6409-1.7937-5.6052-1.7937-12.219zm39.348-6.0536q0-2.8026-0.78473-5.2689-0.78472-2.5784-2.3542-4.372-1.4574-1.9058-3.6994-2.9147-2.13-1.121-5.1568-1.121-3.1389 0-5.4931 1.2331-2.3542 1.121-4.0357 3.0268-1.5694 1.9058-2.4663 4.372-0.89683 2.4663-1.2331 5.0447zm27.914-21.636q3.9236-1.121 10.201-2.13 6.2778-1.0089 13.901-1.0089 7.1746 0 11.995 2.0179 4.8205 1.9058 7.6231 5.4931 2.9147 3.4752 4.0357 8.5199 1.2331 4.9326 1.2331 10.874v32.959h-13.565v-30.829q0-4.7084-0.67262-7.9594-0.56052-3.3631-2.0179-5.381-1.3452-2.13-3.8115-3.0268-2.3542-1.0089-5.8294-1.0089-2.5784 0-5.381 0.33631-2.8026 0.33631-4.1478 0.56052v47.308h-13.565zm80.827 49.326q0 3.9236-2.6905 6.3899-2.5784 2.4663-6.2778 2.4663-3.8115 0-6.3899-2.4663-2.5784-2.4663-2.5784-6.3899 0-3.9236 2.5784-6.3899 2.5784-2.5784 6.3899-2.5784 3.6994 0 6.2778 2.5784 2.6905 2.4663 2.6905 6.3899zm14.574-49.326q3.9236-1.121 10.201-2.13 6.2778-1.0089 13.901-1.0089 7.1746 0 11.995 2.0179 4.8205 1.9058 7.6231 5.4931 2.9147 3.4752 4.0357 8.5199 1.2331 4.9326 1.2331 10.874v32.959h-13.565v-30.829q0-4.7084-0.67263-7.9594-0.56052-3.3631-2.0179-5.381-1.3452-2.13-3.8115-3.0268-2.3542-1.0089-5.8294-1.0089-2.5784 0-5.381 0.33631-2.8026 0.33631-4.1478 0.56052v47.308h-13.565zm118.61 27.353q0 6.9504-2.0179 12.668-2.0179 5.7173-5.7173 9.753t-8.9683 6.2778q-5.1568 2.2421-11.435 2.2421t-11.435-2.2421q-5.1568-2.2421-8.8562-6.2778t-5.8294-9.753q-2.0179-5.7173-2.0179-12.668t2.0179-12.556q2.13-5.7173 5.8294-9.753 3.8115-4.0357 8.9683-6.1657 5.1568-2.2421 11.322-2.2421t11.322 2.2421q5.2689 2.13 8.9683 6.1657t5.7173 9.753q2.13 5.6052 2.13 12.556zm-13.901 0q0-8.7441-3.8115-13.789-3.6995-5.1568-10.426-5.1568t-10.538 5.1568q-3.6994 5.0447-3.6994 13.789 0 8.8562 3.6994 14.013 3.8116 5.1568 10.538 5.1568t10.426-5.1568q3.8115-5.1568 3.8115-14.013z" stroke-width="4.671" style="white-space:pre" aria-label="ortspillguiden.no"/>
</svg>
